<svg width="91" height="32" viewBox="0 0 91 32" fill="none" xmlns="http://www.w3.org/2000/svg">
  <path d="M13.0991 31.0471C20.3362 31.0471 26.1982 25.1851 26.1982 17.948C26.1982 10.7109 20.3362 4.84888 13.0991 4.84888C5.86197 4.84888 0 10.7109 0 17.948C0 25.1851 5.86197 31.0471 13.0991 31.0471Z" fill="black"/>
  <path d="M77.9009 31.0471C85.138 31.0471 91 25.1851 91 17.948C91 10.7109 85.138 4.84888 77.9009 4.84888C70.6638 4.84888 64.8018 10.7109 64.8018 17.948C64.8018 25.1851 70.6638 31.0471 77.9009 31.0471Z" fill="black"/>
  <path d="M45.5 27.0991C52.7371 27.0991 58.5991 21.2371 58.5991 14C58.5991 6.76288 52.7371 0.900909 45.5 0.900909C38.2629 0.900909 32.4009 6.76288 32.4009 14C32.4009 21.2371 38.2629 27.0991 45.5 27.0991Z" fill="black"/>
</svg>